<svg id="Layer_1" enable-background="new 0 0 512 512" height="512" viewBox="0 0 512 512" width="512" xmlns="http://www.w3.org/2000/svg"><path clip-rule="evenodd" d="m56.013 152.163c-4.418 0-8-3.582-8-8s3.582-8 8-8h59.996c4.418 0 8 3.582 8 8s-3.582 8-8 8zm142.395 178.9h128.796 85.696c11.613 0 22.43-3.699 31.265-10.219 8.769-6.473 15.462-15.714 18.898-26.853l40.808-132.305c.632-1.589.979-3.321.979-5.135 0-7.682-6.227-13.909-13.909-13.909h-320.4l-15.123-62.645c-1.634-6.769-5.402-12.477-10.511-16.5-5.135-4.044-11.566-6.379-18.496-6.379h-31.773c-7.682 0-13.909 6.227-13.909 13.909s6.227 13.909 13.909 13.909h31.772c.545 0 1.004.147 1.327.402.35.276.612.683.732 1.178l53.006 219.572c-7.521 2.607-14.269 6.896-19.785 12.413-9.413 9.413-15.257 22.41-15.257 36.718 0 14.307 5.843 27.304 15.257 36.718 8.872 8.872 20.927 14.571 34.261 15.198-.036.738-.055 1.48-.055 2.226 0 25.141 20.38 45.52 45.521 45.52 25.14 0 45.52-20.38 45.52-45.52 0-.727-.019-1.449-.052-2.167h77.485c-.034.719-.052 1.441-.052 2.167 0 25.141 20.38 45.52 45.521 45.52s45.521-20.38 45.521-45.52-20.38-45.521-45.521-45.521c-13.655 0-25.904 6.014-34.247 15.535h-99.927c-8.343-9.521-20.592-15.535-34.247-15.535s-25.904 6.014-34.247 15.535h-8.763c-6.629 0-12.665-2.722-17.05-7.106-4.385-4.385-7.106-10.422-7.106-17.05 0-6.629 2.722-12.665 7.106-17.05 4.386-4.384 10.422-7.106 17.05-7.106zm-10.466-123.181c-.553 0-1.09.066-1.605.19l-9.08-37.612h75.308v37.422zm21.37 95.363-9.033-37.421h52.286v37.421zm43.253-51.102h-53.975c-.541 0-1.066.063-1.57.182l-7.426-30.762h62.972v30.58zm13.681-44.261v-37.422h50.127v37.422zm0 44.261v-30.58h50.127v30.58zm63.808-44.261v-37.422h50.127v37.422zm0 44.261v-30.58h50.127v30.58zm63.808-44.261v-37.422h78.275l-11.636 37.724c-.638-.197-1.315-.302-2.017-.302zm-127.616 95.363v-37.421h50.127v37.421zm127.616-51.102v-30.58h62.513l-9.526 30.883c-.637-.196-1.315-.303-2.017-.303zm-63.808 51.102v-37.421h50.127v37.421zm63.808 0v-37.421h48.861l-6.174 20.017c-1.639 5.315-4.791 9.693-8.9 12.727-4.044 2.985-9.141 4.678-14.749 4.678h-19.038zm-2.557 106.116c0-10.236 8.298-18.534 18.534-18.534s18.534 8.298 18.534 18.534-8.298 18.534-18.534 18.534-18.534-8.298-18.534-18.534zm-149.887-18.534c10.236 0 18.534 8.298 18.534 18.534s-8.298 18.534-18.534 18.534-18.534-8.298-18.534-18.534 8.298-18.534 18.534-18.534zm-192.369-154.899c-4.418 0-8-3.582-8-8s3.582-8 8-8h82.72c4.418 0 8 3.582 8 8s-3.582 8-8 8zm-33.899-41.882c-4.418 0-8-3.582-8-8s3.582-8 8-8h65.105c4.418 0 8 3.582 8 8s-3.582 8-8 8z" fill-rule="evenodd"/></svg>